PathFileType	4	(X/Y/Z) flx_2kg_3.trc																										
DataRate	CameraRate	NumFrames	NumMarkers	Units	OrigDataRate	OrigDataStartFrame	OrigNumFrames																					
100	100	44	9	mm	100	1	774																					
Frame#	Time	gu			centelbow			EpL			centpxt8			centijc7			ij			ts			aa			ai		
		X1	Y1	Z1	X2	Y2	Z2	X3	Y3	Z3	X4	Y4	Z4	X5	Y5	Z5	X6	Y6	Z6	X7	Y7	Z7	X8	Y8	Z8	X9	Y9	Z9  
0	0	-74.706	-18.616	166.169	-131.869	-257.486	191.812	-114.237	-254.695	218.659	-46.816	-153.158	-8.669	-46.816	31.938	-8.669	0	0	0	-134.974	26.718	54.083	-105.242	19.425	169.355	-153.985	-85.148	57.302
1	0.01	-74.682	-18.778	166.299	-131.812	-257.652	191.986	-114.154	-254.862	218.816	-46.816	-153.158	-8.669	-46.816	31.938	-8.669	0	0	0	-134.969	26.567	54.331	-105.214	19.274	169.597	-153.981	-85.298	57.553
2	0.02	-74.722	-19	166.524	-131.829	-257.876	192.232	-114.145	-255.09	219.045	-46.816	-153.158	-8.669	-46.816	31.938	-8.669	0	0	0	-134.961	26.365	54.661	-105.192	19.075	169.924	-153.975	-85.499	57.89
3	0.03	-74.791	-19.178	166.708	-131.833	-258.07	192.425	-114.128	-255.285	219.224	-46.816	-153.158	-8.669	-46.816	31.938	-8.669	0	0	0	-135.014	26.214	54.857	-105.24	18.94	170.12	-154.002	-85.655	58.095
4	0.04	-74.821	-19.174	166.665	-131.722	-258.097	192.406	-114.003	-255.303	219.195	-46.816	-153.158	-8.669	-46.816	31.938	-8.669	0	0	0	-135.084	26.185	54.783	-105.31	18.931	170.047	-154.021	-85.692	58.027
5	0.05	-74.845	-18.955	166.375	-131.551	-257.919	192.154	-113.824	-255.11	218.936	-46.816	-153.158	-8.669	-46.816	31.938	-8.669	0	0	0	-135.074	26.211	54.561	-105.305	18.969	169.827	-153.965	-85.674	57.804
6	0.06	-74.95	-18.651	166.067	-131.454	-257.66	191.878	-113.726	-254.833	218.658	-46.816	-153.158	-8.669	-46.816	31.938	-8.669	0	0	0	-135.03	26.212	54.438	-105.267	18.98	169.706	-153.894	-85.677	57.681
7	0.07	-75.089	-18.422	166.005	-131.421	-257.469	191.841	-113.703	-254.624	218.625	-46.816	-153.158	-8.669	-46.816	31.938	-8.669	0	0	0	-135.026	26.216	54.557	-105.267	18.994	169.826	-153.875	-85.676	57.805
8	0.08	-75.146	-18.331	166.193	-131.354	-257.404	192.057	-113.651	-254.543	218.85	-46.816	-153.158	-8.669	-46.816	31.938	-8.669	0	0	0	-134.997	26.271	54.842	-105.228	19.05	170.108	-153.836	-85.623	58.091
9	0.09	-75.134	-18.31	166.361	-131.264	-257.396	192.273	-113.563	-254.523	219.066	-46.816	-153.158	-8.669	-46.816	31.938	-8.669	0	0	0	-134.963	26.406	55.023	-105.132	19.175	170.274	-153.794	-85.489	58.27
10	0.1	-75.12	-18.263	166.288	-131.171	-257.361	192.262	-113.449	-254.482	219.04	-46.816	-153.158	-8.669	-46.816	31.938	-8.669	0	0	0	-135.037	26.605	54.922	-105.06	19.353	170.133	-153.85	-85.293	58.17
11	0.11	-75.067	-18.221	166.081	-131.01	-257.339	192.106	-113.249	-254.459	218.859	-46.816	-153.158	-8.669	-46.816	31.938	-8.669	0	0	0	-135.137	26.713	54.694	-104.971	19.443	169.855	-153.929	-85.188	57.95
12	0.12	-74.962	-18.243	166.026	-130.776	-257.388	192.081	-112.98	-254.506	218.809	-46.816	-153.158	-8.669	-46.816	31.938	-8.669	0	0	0	-135.143	26.615	54.607	-104.84	19.344	169.731	-153.913	-85.29	57.879
13	0.13	-74.838	-18.257	166.178	-130.521	-257.43	192.245	-112.706	-254.543	218.961	-46.816	-153.158	-8.669	-46.816	31.938	-8.669	0	0	0	-135.063	26.492	54.661	-104.728	19.245	169.779	-153.797	-85.417	57.953
14	0.14	-74.687	-18.175	166.327	-130.269	-257.37	192.411	-112.451	-254.475	219.123	-46.816	-153.158	-8.669	-46.816	31.938	-8.669	0	0	0	-134.897	26.607	54.652	-104.615	19.397	169.786	-153.584	-85.31	57.957
15	0.15	-74.582	-18.089	166.385	-130.154	-257.284	192.494	-112.338	-254.385	219.208	-46.816	-153.158	-8.669	-46.816	31.938	-8.669	0	0	0	-134.758	26.888	54.543	-104.553	19.704	169.699	-153.416	-85.034	57.852
16	0.16	-74.677	-18.132	166.429	-130.346	-257.303	192.552	-112.535	-254.408	219.27	-46.816	-153.158	-8.669	-46.816	31.938	-8.669	0	0	0	-134.835	27.05	54.509	-104.697	19.865	169.682	-153.518	-84.868	57.813
17	0.17	-74.948	-18.276	166.456	-130.754	-257.417	192.566	-112.949	-254.53	219.288	-46.816	-153.158	-8.669	-46.816	31.938	-8.669	0	0	0	-135.045	26.967	54.6	-104.949	19.754	169.782	-153.796	-84.94	57.888
18	0.18	-75.141	-18.444	166.437	-131.059	-257.563	192.513	-113.262	-254.686	219.241	-46.816	-153.158	-8.669	-46.816	31.938	-8.669	0	0	0	-135.116	26.753	54.681	-105.027	19.502	169.863	-153.937	-85.143	57.95
19	0.19	-75.07	-18.595	166.411	-131.062	-257.7	192.457	-113.267	-254.831	219.188	-46.816	-153.158	-8.669	-46.816	31.938	-8.669	0	0	0	-135	26.61	54.699	-104.876	19.33	169.87	-153.864	-85.279	57.958
20	0.2	-74.863	-18.668	166.408	-130.903	-257.763	192.434	-113.101	-254.902	219.161	-46.816	-153.158	-8.669	-46.816	31.938	-8.669	0	0	0	-134.868	26.611	54.687	-104.663	19.31	169.835	-153.749	-85.275	57.943
21	0.21	-74.758	-18.658	166.419	-130.82	-257.75	192.427	-113.001	-254.897	219.144	-46.816	-153.158	-8.669	-46.816	31.938	-8.669	0	0	0	-134.821	26.68	54.62	-104.488	19.354	169.734	-153.709	-85.205	57.877
22	0.22	-74.751	-18.702	166.429	-130.85	-257.787	192.42	-113.006	-254.946	219.121	-46.816	-153.158	-8.669	-46.816	31.938	-8.669	0	0	0	-134.845	26.729	54.53	-104.369	19.37	169.604	-153.751	-85.153	57.784
23	0.23	-74.677	-18.941	166.437	-130.892	-258.001	192.405	-113.016	-255.181	219.087	-46.816	-153.158	-8.669	-46.816	31.938	-8.669	0	0	0	-134.867	26.691	54.567	-104.292	19.286	169.611	-153.819	-85.183	57.806
24	0.24	-74.476	-19.281	166.433	-130.847	-258.312	192.335	-112.941	-255.52	218.999	-46.816	-153.158	-8.669	-46.816	31.938	-8.669	0	0	0	-134.78	26.575	54.748	-104.182	19.104	169.782	-153.796	-85.29	57.946
25	0.25	-74.222	-19.431	166.369	-130.65	-258.461	192.155	-112.723	-255.692	218.808	-46.816	-153.158	-8.669	-46.816	31.938	-8.669	0	0	0	-134.597	26.521	54.852	-104.024	18.984	169.888	-153.656	-85.338	57.992
26	0.26	-73.991	-19.287	166.198	-130.319	-258.353	191.872	-112.382	-255.592	218.519	-46.816	-153.158	-8.669	-46.816	31.938	-8.669	0	0	0	-134.508	26.616	54.703	-103.957	19.031	169.742	-153.559	-85.246	57.791
27	0.27	-73.87	-19.083	165.987	-130.029	-258.195	191.6	-112.088	-255.43	218.245	-46.816	-153.158	-8.669	-46.816	31.938	-8.669	0	0	0	-134.653	26.746	54.403	-104.105	19.129	169.441	-153.668	-85.124	57.449
28	0.28	-73.95	-19.047	165.865	-129.979	-258.19	191.473	-112.043	-255.416	218.119	-46.816	-153.158	-8.669	-46.816	31.938	-8.669	0	0	0	-134.92	26.748	54.187	-104.382	19.11	169.226	-153.907	-85.128	57.204
29	0.29	-74.181	-19.165	165.835	-130.162	-258.317	191.465	-112.237	-255.533	218.117	-46.816	-153.158	-8.669	-46.816	31.938	-8.669	0	0	0	-135.076	26.614	54.138	-104.571	18.97	169.185	-154.052	-85.264	57.14
30	0.3	-74.399	-19.324	165.792	-130.373	-258.475	191.437	-112.465	-255.684	218.1	-46.816	-153.158	-8.669	-46.816	31.938	-8.669	0	0	0	-135.083	26.493	54.123	-104.626	18.853	169.183	-154.042	-85.388	57.115
31	0.31	-74.537	-19.396	165.702	-130.465	-258.558	191.344	-112.577	-255.758	218.02	-46.816	-153.158	-8.669	-46.816	31.938	-8.669	0	0	0	-135.136	26.531	54.008	-104.718	18.891	169.078	-154.054	-85.357	56.982
32	0.32	-74.654	-19.303	165.637	-130.463	-258.494	191.281	-112.593	-255.679	217.967	-46.816	-153.158	-8.669	-46.816	31.938	-8.669	0	0	0	-135.332	26.715	53.837	-104.935	19.07	168.912	-154.198	-85.183	56.789
33	0.33	-74.787	-19.21	165.697	-130.497	-258.422	191.355	-112.636	-255.596	218.046	-46.816	-153.158	-8.669	-46.816	31.938	-8.669	0	0	0	-135.517	26.878	53.737	-105.118	19.226	168.811	-154.351	-85.025	56.673
34	0.34	-74.901	-19.355	165.885	-130.635	-258.56	191.554	-112.771	-255.736	218.243	-46.816	-153.158	-8.669	-46.816	31.938	-8.669	0	0	0	-135.539	26.865	53.699	-105.122	19.199	168.768	-154.38	-85.037	56.626
35	0.35	-74.925	-19.668	166.112	-130.77	-258.85	191.76	-112.895	-256.039	218.443	-46.816	-153.158	-8.669	-46.816	31.938	-8.669	0	0	0	-135.474	26.692	53.65	-105.032	18.992	168.71	-154.349	-85.205	56.559
36	0.36	-74.841	-19.88	166.284	-130.751	-259.054	191.868	-112.859	-256.26	218.542	-46.816	-153.158	-8.669	-46.816	31.938	-8.669	0	0	0	-135.465	26.509	53.66	-105.009	18.761	168.713	-154.374	-85.383	56.533
37	0.37	-74.687	-19.918	166.347	-130.543	-259.111	191.859	-112.626	-256.329	218.517	-46.816	-153.158	-8.669	-46.816	31.938	-8.669	0	0	0	-135.512	26.428	53.768	-105.055	18.643	168.818	-154.426	-85.464	56.606
38	0.38	-74.482	-19.876	166.31	-130.196	-259.107	191.784	-112.251	-256.327	218.424	-46.816	-153.158	-8.669	-46.816	31.938	-8.669	0	0	0	-135.578	26.476	53.805	-105.109	18.674	168.851	-154.451	-85.424	56.618
39	0.39	-74.281	-19.766	166.208	-129.815	-259.041	191.659	-111.842	-256.26	218.279	-46.816	-153.158	-8.669	-46.816	31.938	-8.669	0	0	0	-135.701	26.663	53.68	-105.207	18.846	168.718	-154.498	-85.25	56.462
40	0.4	-74.194	-19.568	166.084	-129.561	-258.885	191.509	-111.566	-256.101	218.114	-46.816	-153.158	-8.669	-46.816	31.938	-8.669	0	0	0	-135.83	26.899	53.562	-105.336	19.063	168.599	-154.56	-85.026	56.307
41	0.41	-74.213	-19.399	166.045	-129.49	-258.736	191.468	-111.48	-255.951	218.063	-46.816	-153.158	-8.669	-46.816	31.938	-8.669	0	0	0	-135.811	26.931	53.65	-105.378	19.098	168.704	-154.535	-84.996	56.386
42	0.42	-74.155	-19.382	166.104	-129.413	-258.721	191.553	-111.398	-255.933	218.145	-46.816	-153.158	-8.669	-46.816	31.938	-8.669	0	0	0	-135.635	26.655	53.878	-105.304	18.853	168.961	-154.414	-85.262	56.642
43	0.43	-73.987	-19.472	166.158	-129.224	-258.815	191.618	-111.209	-256.024	218.21	-46.816	-153.158	-8.669	-46.816	31.938	-8.669	0	0	0	-135.447	26.32	54.045	-105.206	18.541	169.152	-154.29	-85.585	56.832
